<?xml version="1.0" encoding="UTF-8"?>
<svg id="Layer_1" data-name="Layer 1" xmlns="http://www.w3.org/2000/svg" viewBox="0 0 80 100">
  <defs>
    <style>
      .cls-1 {
        fill: #9191e2;
        fill-rule: evenodd;
        stroke-width: 0px;
      }
    </style>
  </defs>
  <path class="cls-1" d="M75.09,15.22h-7.09V4.77c0-2.63-2.14-4.77-4.77-4.77h-1.35c-2.64,0-4.77,2.14-4.77,4.77v10.45H22.89V4.77c0-2.63-2.13-4.77-4.77-4.77h-1.35c-2.63,0-4.77,2.14-4.77,4.77v10.45h-7.09c-2.71,0-4.91,2.19-4.91,4.9v74.97c0,2.71,2.2,4.91,4.91,4.91h70.18c2.71,0,4.91-2.2,4.91-4.91V20.12c0-2.71-2.2-4.9-4.91-4.9ZM63.7,47.76l-26.9,26.89c-.95.96-2.2,1.44-3.45,1.44s-2.51-.48-3.46-1.44l-13.59-13.58c-1.91-1.91-1.91-5.01,0-6.92,1.91-1.91,5.01-1.91,6.92,0l10.13,10.13,23.43-23.44c1.91-1.91,5.01-1.91,6.92,0,1.91,1.91,1.91,5.01,0,6.92Z"/>
</svg>