<?xml version="1.0" encoding="UTF-8"?>
<svg id="Layer_1" data-name="Layer 1" xmlns="http://www.w3.org/2000/svg" viewBox="0 0 80 100">
  <defs>
    <style>
      .cls-1 {
        fill: #9191e2;
        fill-rule: evenodd;
        stroke-width: 0px;
      }
    </style>
  </defs>
  <path class="cls-1" d="M74.37,0H5.63C2.52,0,0,2.52,0,5.63v2.73c0,3.11,2.52,5.63,5.63,5.63h2.87v86h63V14h2.87c3.11,0,5.63-2.52,5.63-5.63v-2.73c0-3.11-2.52-5.63-5.63-5.63ZM20.91,22.8c0-1.55,1.25-2.8,2.8-2.8h8.21c1.55,0,2.8,1.25,2.8,2.8v7.49c0,1.55-1.25,2.8-2.8,2.8h-8.21c-1.55,0-2.8-1.25-2.8-2.8v-7.49ZM23.71,56.09c-1.55,0-2.8-1.25-2.8-2.8v-7.49c0-1.55,1.25-2.8,2.8-2.8h8.21c1.55,0,2.8,1.25,2.8,2.8v7.49c0,1.55-1.25,2.8-2.8,2.8h-8.21ZM46.91,88.2c0,1.55-1.25,2.8-2.8,2.8h-8.21c-1.55,0-2.8-1.25-2.8-2.8v-20.49c0-1.55,1.25-2.8,2.8-2.8h8.21c1.55,0,2.8,1.25,2.8,2.8v20.49ZM59.09,53.29c0,1.55-1.25,2.8-2.8,2.8h-8.21c-1.55,0-2.8-1.25-2.8-2.8v-7.49c0-1.55,1.25-2.8,2.8-2.8h8.21c1.55,0,2.8,1.25,2.8,2.8v7.49ZM59.09,30.29c0,1.55-1.25,2.8-2.8,2.8h-8.21c-1.55,0-2.8-1.25-2.8-2.8v-7.49c0-1.55,1.25-2.8,2.8-2.8h8.21c1.55,0,2.8,1.25,2.8,2.8v7.49Z"/>
</svg>