<?xml version="1.0" encoding="UTF-8"?>
<svg id="Layer_1" data-name="Layer 1" xmlns="http://www.w3.org/2000/svg" viewBox="0 0 260.24 65">
  <defs>
    <style>
      .cls-1 {
        fill-rule: evenodd;
      }

      .cls-1, .cls-2 {
        fill: #fa0;
        stroke-width: 0px;
      }
    </style>
  </defs>
  <path class="cls-2" d="m100.76,14.89c-.65-1.05-1.56-1.88-2.71-2.49-1.15-.61-2.94-1.2-5.34-1.77-2.41-.57-3.92-1.11-4.55-1.64-.49-.41-.74-.91-.74-1.49,0-.64.26-1.14.79-1.52.81-.59,1.94-.89,3.38-.89s2.44.28,3.14.83c.7.55,1.15,1.46,1.36,2.72l4.95-.22c-.08-2.25-.9-4.05-2.45-5.4-1.56-1.35-3.87-2.02-6.95-2.02-1.88,0-3.49.28-4.83.85-1.33.57-2.35,1.4-3.06,2.48-.71,1.09-1.06,2.26-1.06,3.5,0,1.94.75,3.59,2.26,4.93,1.07.96,2.93,1.77,5.59,2.43,2.06.51,3.38.87,3.96,1.07.85.3,1.44.66,1.78,1.06.34.41.51.9.51,1.48,0,.9-.4,1.69-1.21,2.37-.81.68-2.01,1.01-3.6,1.01-1.51,0-2.7-.38-3.59-1.14-.89-.76-1.47-1.95-1.76-3.56l-4.82.47c.32,2.74,1.32,4.83,2.98,6.26,1.66,1.43,4.04,2.15,7.14,2.15,2.13,0,3.91-.3,5.34-.9,1.43-.6,2.53-1.51,3.31-2.73.78-1.23,1.17-2.54,1.17-3.95,0-1.55-.33-2.85-.98-3.91Z"/>
  <path class="cls-2" d="m125.5,4.36c-2.17-2.24-5.06-3.36-8.67-3.36-2,0-3.76.32-5.29.97-1.15.48-2.21,1.22-3.17,2.21-.96.99-1.73,2.11-2.28,3.36-.75,1.7-1.12,3.79-1.12,6.29,0,3.9,1.08,6.97,3.23,9.19,2.15,2.22,5.05,3.34,8.7,3.34s6.48-1.12,8.63-3.35c2.15-2.24,3.23-5.33,3.23-9.29s-1.08-7.11-3.25-9.35Zm-3.76,15.63c-1.27,1.42-2.89,2.13-4.86,2.13s-3.6-.72-4.88-2.15c-1.28-1.43-1.92-3.54-1.92-6.31s.62-4.93,1.87-6.33c1.25-1.4,2.89-2.1,4.93-2.1s3.68.69,4.91,2.07c1.23,1.38,1.85,3.48,1.85,6.29s-.63,4.98-1.9,6.4Z"/>
  <path class="cls-2" d="m147.25,1.42v13.56c0,1.94-.07,3.33-.22,4.16-.14.84-.57,1.54-1.29,2.12-.71.57-1.77.86-3.18.86s-2.47-.3-3.27-.91c-.8-.61-1.3-1.41-1.51-2.42-.12-.62-.18-1.99-.18-4.1V1.42h-4.95v13.08c0,2.74.16,4.82.49,6.22.22.95.69,1.85,1.39,2.72.7.86,1.66,1.57,2.87,2.11,1.21.54,2.99.81,5.33.81,1.94,0,3.51-.25,4.72-.74,1.2-.5,2.17-1.16,2.89-2,.72-.84,1.21-1.86,1.48-3.08.27-1.22.4-3.3.4-6.24V1.42h-4.95Z"/>
  <path class="cls-2" d="m172.39,1.42v16.38l-10.04-16.38h-4.82v24.52h4.6v-15.99l9.88,15.99h4.97V1.42h-4.6Z"/>
  <path class="cls-2" d="m202.03,8.12c-.53-1.57-1.32-2.89-2.34-3.97-1.03-1.08-2.26-1.83-3.7-2.26-1.07-.31-2.63-.47-4.67-.47h-9.05v24.52h9.32c1.83,0,3.29-.17,4.38-.52,1.46-.47,2.62-1.12,3.48-1.96,1.14-1.1,2.01-2.55,2.63-4.33.5-1.46.75-3.2.75-5.22,0-2.3-.27-4.23-.8-5.8Zm-4.82,10.07c-.33,1.1-.77,1.89-1.3,2.37-.53.48-1.2.82-2,1.02-.61.16-1.61.23-2.99.23h-3.7V5.57h2.22c2.02,0,3.37.08,4.06.23.93.2,1.69.58,2.29,1.15.6.57,1.07,1.36,1.4,2.37.33,1.01.5,2.47.5,4.37s-.17,3.39-.5,4.49Z"/>
  <path class="cls-2" d="m236.21,4.36c-2.17-2.24-5.06-3.36-8.67-3.36-2,0-3.76.32-5.29.97-1.15.48-2.21,1.22-3.17,2.21-.96.99-1.73,2.11-2.28,3.36-.75,1.7-1.12,3.79-1.12,6.29,0,3.9,1.08,6.97,3.23,9.19,2.15,2.22,5.05,3.34,8.7,3.34s6.48-1.12,8.63-3.35c2.15-2.24,3.23-5.33,3.23-9.29s-1.08-7.11-3.25-9.35Zm-3.76,15.63c-1.27,1.42-2.89,2.13-4.86,2.13s-3.6-.72-4.88-2.15c-1.28-1.43-1.92-3.54-1.92-6.31s.62-4.93,1.87-6.33c1.25-1.4,2.89-2.1,4.93-2.1s3.68.69,4.91,2.07c1.23,1.38,1.85,3.48,1.85,6.29s-.63,4.98-1.9,6.4Z"/>
  <path class="cls-2" d="m260.24,5.57V1.42h-16.81v24.52h4.95v-10.42h10.24v-4.15h-10.24v-5.8h11.86Z"/>
  <path class="cls-2" d="m83.94,39.06v4.15h7.28v20.37h4.95v-20.37h7.26v-4.15h-19.49Z"/>
  <path class="cls-2" d="m121.35,39.06v9.65h-9.7v-9.65h-4.95v24.52h4.95v-10.72h9.7v10.72h4.95v-24.52h-4.95Z"/>
  <path class="cls-2" d="m136.44,59.45v-6.67h12.31v-4.13h-12.31v-5.44h13.23v-4.15h-18.18v24.52h18.65v-4.13h-13.7Z"/>
  <path class="cls-2" d="m181.7,52.53c-.65-1.05-1.56-1.88-2.71-2.49-1.15-.61-2.94-1.2-5.34-1.76-2.41-.57-3.92-1.12-4.55-1.64-.49-.41-.74-.91-.74-1.49,0-.64.26-1.14.79-1.52.81-.59,1.94-.89,3.38-.89s2.44.28,3.14.83c.7.55,1.15,1.46,1.36,2.72l4.95-.22c-.08-2.25-.9-4.05-2.45-5.4-1.56-1.35-3.87-2.02-6.95-2.02-1.88,0-3.49.28-4.83.85-1.33.57-2.35,1.4-3.06,2.48-.71,1.09-1.06,2.26-1.06,3.5,0,1.94.75,3.59,2.26,4.93,1.07.96,2.93,1.77,5.59,2.43,2.06.51,3.38.87,3.96,1.07.85.3,1.44.66,1.78,1.06.34.41.51.9.51,1.48,0,.9-.4,1.69-1.21,2.37-.81.67-2.01,1.01-3.6,1.01-1.51,0-2.7-.38-3.59-1.14-.89-.76-1.47-1.95-1.76-3.56l-4.82.47c.32,2.74,1.32,4.83,2.98,6.26,1.66,1.43,4.04,2.15,7.14,2.15,2.13,0,3.91-.3,5.34-.9,1.43-.6,2.53-1.51,3.31-2.73.78-1.23,1.17-2.54,1.17-3.95,0-1.55-.33-2.85-.98-3.91Z"/>
  <path class="cls-2" d="m201.48,39.06v13.56c0,1.94-.07,3.33-.22,4.16-.14.84-.57,1.54-1.29,2.12-.71.57-1.77.86-3.18.86s-2.47-.3-3.27-.91c-.8-.61-1.3-1.41-1.51-2.42-.12-.62-.18-1.99-.18-4.1v-13.28h-4.95v13.08c0,2.74.16,4.82.49,6.22.22.95.69,1.85,1.39,2.72.7.86,1.66,1.57,2.87,2.11,1.21.54,2.99.81,5.33.81,1.94,0,3.51-.25,4.72-.74,1.2-.5,2.17-1.16,2.88-2,.72-.84,1.21-1.86,1.48-3.08.27-1.22.4-3.3.4-6.24v-12.88h-4.95Z"/>
  <path class="cls-2" d="m226.62,39.06v16.37l-10.04-16.37h-4.82v24.52h4.6v-15.99l9.88,15.99h4.97v-24.52h-4.6Z"/>
  <g>
    <polygon class="cls-2" points="48.49 19.47 48.5 19.48 50.34 18.54 48.49 19.47"/>
    <polygon class="cls-2" points="54.68 16.34 52.05 17.67 51.55 17.93 50.75 18.33 51.55 17.93 52.05 17.67 54.68 16.34 54.68 16.34"/>
    <path class="cls-2" d="m32.05,65C14.13,64.75-.25,49.97,0,32.05.25,14.13,15.04-.25,32.95,0c9.36.13,18.21,4.29,24.29,11.42l.59.69-2.4,1.42-.42-.48c-.37-.43-.77-.86-1.18-1.29-2.69-2.77-5.85-4.96-9.37-6.51-3.64-1.6-7.53-2.44-11.54-2.5-4.02-.06-7.92.68-11.61,2.17-3.56,1.45-6.77,3.55-9.54,6.24-2.77,2.69-4.96,5.85-6.51,9.37-1.6,3.64-2.44,7.53-2.5,11.54-.06,4.02.68,7.92,2.17,11.61,1.45,3.56,3.55,6.77,6.24,9.55,2.69,2.77,5.85,4.96,9.37,6.51,3.64,1.6,7.53,2.44,11.54,2.5s7.92-.68,11.61-2.17c3.56-1.45,6.77-3.55,9.55-6.24,1.79-1.74,3.35-3.69,4.64-5.8l.44-.71,2.22,1.65-.37.6c-5.98,9.68-16.76,15.59-28.12,15.44Z"/>
    <path class="cls-2" d="m32.12,59.95c-15.14-.21-27.28-12.7-27.07-27.84.21-15.14,12.7-27.28,27.84-27.07,7.57.11,14.83,3.38,19.93,8.98l.63.69-2.41,1.43-.42-.45c-.13-.14-.26-.28-.4-.42-2.24-2.3-4.85-4.12-7.78-5.4-3.03-1.33-6.25-2.03-9.59-2.07s-6.58.56-9.64,1.81c-2.96,1.2-5.63,2.95-7.93,5.18-2.3,2.24-4.12,4.85-5.4,7.78-1.33,3.03-2.03,6.25-2.07,9.59-.05,3.34.56,6.58,1.81,9.64,1.2,2.96,2.95,5.63,5.18,7.93,2.24,2.3,4.85,4.12,7.78,5.4,3.03,1.33,6.25,2.03,9.59,2.07,3.34.05,6.58-.56,9.64-1.81,2.96-1.2,5.63-2.95,7.93-5.18,1.59-1.55,2.97-3.3,4.08-5.19l.43-.73,2.22,1.65-.35.59c-5.01,8.42-14.2,13.56-23.99,13.42Z"/>
    <g>
      <path class="cls-2" d="m59.44,13.92c-.05-.07-.09-.13-.14-.2-.29.18-11.32,6.01-11.32,6.01-.44-.54-.91-1.06-1.4-1.55-1.85-1.85-4.02-3.31-6.42-4.33-2.49-1.05-5.14-1.59-7.87-1.59s-5.37.53-7.87,1.59c-.78.33-1.53.71-2.26,1.13l4.11,7.1c1.77-1.03,3.83-1.62,6.02-1.62,3.11,0,5.94,1.19,8.08,3.13l-10.23,5.17-.12.06,3.7,7.32,2.48-1.25,8-4.04c.07.54.11,1.08.11,1.64,0,2.08-.53,4.03-1.46,5.74-2.04,3.74-6.01,6.28-10.55,6.28-6.62,0-12.01-5.39-12.01-12.01h-8.2c0,2.73.53,5.37,1.59,7.87,1.02,2.41,2.47,4.57,4.33,6.42,1.85,1.85,4.02,3.31,6.42,4.33,2.49,1.05,5.14,1.59,7.87,1.59s5.37-.53,7.87-1.59c2.41-1.02,4.57-2.47,6.42-4.33,1.45-1.45,2.65-3.08,3.6-4.88.26-.5.51-1.02.73-1.54,1.05-2.49,1.59-5.14,1.59-7.87,0-1.86-.25-3.69-.75-5.46h0s.07-.04.07-.04l-.03-.04,2.52-1.23.65-.32h0s0,0,0,0l.34-.17.5-.25c.77,2.41,1.16,4.93,1.16,7.51,0,3.34-.65,6.57-1.94,9.61-.12.27-.24.54-.36.81l2.47,1.58.94.6,2.6,1.67.67.43.26.18c2.27-4.47,3.55-9.53,3.55-14.89,0-6.88-2.11-13.27-5.73-18.55Zm-.81.78c-.06-.09-.12-.18-.18-.27l.04-.02.17.33s-.02-.03-.03-.04Z"/>
      <polygon class="cls-2" points="54.96 25.39 54.31 25.72 51.82 26.97 51.79 26.94 54.31 25.71 54.96 25.39"/>
      <polygon class="cls-2" points="50.34 18.54 48.5 19.48 48.49 19.47 50.34 18.54"/>
      <path class="cls-2" d="m58.66,14.75s-.02-.03-.03-.04c-.06-.09-.12-.18-.18-.27l.04-.02.17.33Z"/>
    </g>
    <g>
      <polygon class="cls-1" points="50.34 18.54 48.5 19.48 48.49 19.47 50.34 18.54"/>
      <polygon class="cls-1" points="54.96 25.39 54.31 25.72 51.82 26.97 51.79 26.94 54.31 25.71 54.96 25.39"/>
    </g>
  </g>
</svg>